<svg width="613" height="503" viewBox="0 0 613 503" fill="none" xmlns="http://www.w3.org/2000/svg">
<g filter="url(#filter0_d_0_574)">
<path fill-rule="evenodd" clip-rule="evenodd" d="M334.352 465.954C211.094 453.421 109.073 363.113 64.3698 248C19.6671 132.887 187.974 34.8284 309.198 29.2104C430.421 23.5924 524 131.297 524 253.974C524 376.651 457.611 478.487 334.352 465.954Z" fill="#FFE5D2"/>
<path fill-rule="evenodd" clip-rule="evenodd" d="M486.001 343.694C486.102 343.635 486.73 344.465 487.66 346.099C488.593 347.727 489.754 350.2 490.833 353.392C493.045 359.752 494.433 369.142 493.61 379.383C492.794 389.621 490.427 398.609 488.601 405.007C486.733 411.407 485.358 415.292 485.121 415.227C484.859 415.154 485.787 411.135 487.32 404.672C488.814 398.21 490.945 389.27 491.743 379.241C492.546 369.215 491.404 360.089 489.569 353.78C487.786 347.44 485.707 343.846 486.001 343.694Z" fill="white"/>
<path fill-rule="evenodd" clip-rule="evenodd" d="M492.31 292.45C492.427 292.398 493.188 293.789 494.456 296.355C495.724 298.921 497.504 302.66 499.611 307.326C503.79 316.657 509.415 329.719 513.495 344.884C515.5 352.47 516.867 359.844 517.559 366.617C518.257 373.388 518.328 379.54 517.979 384.674C517.641 389.812 516.993 393.934 516.368 396.736C515.751 399.545 515.262 401.057 515.152 401.033C514.806 400.966 516.333 394.784 516.657 384.613C517.061 374.463 515.728 360.361 511.685 345.366C507.652 330.367 502.257 317.297 498.396 307.85C496.451 303.123 494.879 299.297 493.79 296.652C492.727 293.996 492.192 292.503 492.31 292.45Z" fill="white"/>
<path fill-rule="evenodd" clip-rule="evenodd" d="M258.833 352.595C259.05 352.828 256.927 354.853 254.172 358.612C253.488 359.557 252.745 360.589 252.05 361.769C251.29 362.906 250.629 364.21 249.893 365.556C248.525 368.301 247.227 371.42 246.225 374.815C245.267 378.223 244.709 381.555 244.407 384.607C244.316 386.137 244.183 387.594 244.221 388.959C244.183 390.329 244.262 391.6 244.338 392.764C244.672 397.412 245.394 400.256 245.086 400.339C244.899 400.403 243.711 397.656 243.022 392.899C242.857 391.711 242.699 390.405 242.669 388.992C242.563 387.58 242.639 386.071 242.687 384.481C242.902 381.311 243.43 377.835 244.427 374.298C245.465 370.771 246.864 367.547 248.37 364.748C249.174 363.375 249.911 362.056 250.753 360.918C251.529 359.736 252.358 358.714 253.13 357.796C256.243 354.135 258.711 352.442 258.833 352.595Z" fill="white"/>
<path fill-rule="evenodd" clip-rule="evenodd" d="M263.816 369.001C263.973 369.252 262.79 370.156 261.245 371.887C260.463 372.741 259.639 373.849 258.828 375.133C258.051 376.438 257.307 377.936 256.723 379.587C256.164 381.247 255.827 382.885 255.635 384.393C255.481 385.903 255.447 387.282 255.537 388.439C255.687 390.753 256.062 392.196 255.782 392.297C255.582 392.381 254.74 391.061 254.225 388.615C253.956 387.395 253.846 385.902 253.916 384.248C254.025 382.599 254.341 380.791 254.953 378.977C255.589 377.171 256.455 375.554 257.386 374.187C258.35 372.841 259.358 371.734 260.32 370.94C262.233 369.329 263.71 368.809 263.816 369.001Z" fill="white"/>
<path fill-rule="evenodd" clip-rule="evenodd" d="M194.645 216.107C194.742 216.023 195.58 216.847 197.017 218.42C197.748 219.198 198.61 220.178 199.523 221.386C200.446 222.584 201.555 223.914 202.596 225.512C203.133 226.301 203.697 227.127 204.283 227.988C204.863 228.855 205.389 229.803 205.975 230.761C207.174 232.664 208.249 234.811 209.418 237.051C211.626 241.596 213.737 246.753 215.418 252.344C217.045 257.951 218.078 263.429 218.695 268.442C218.931 270.959 219.195 273.346 219.222 275.593C219.251 276.716 219.325 277.798 219.308 278.842C219.285 279.883 219.261 280.882 219.239 281.836C219.233 283.746 219.025 285.463 218.902 286.971C218.792 288.481 218.601 289.772 218.41 290.821C218.059 292.923 217.804 294.071 217.676 294.053C217.346 294.009 217.967 289.351 217.916 281.822C217.898 280.88 217.882 279.897 217.864 278.869C217.842 277.843 217.733 276.778 217.672 275.675C217.579 273.466 217.26 271.124 216.984 268.656C216.282 263.741 215.219 258.379 213.622 252.876C211.971 247.388 209.95 242.308 207.866 237.801C206.759 235.58 205.752 233.44 204.63 231.535C204.081 230.576 203.593 229.623 203.055 228.75C202.511 227.879 201.991 227.043 201.493 226.244C197.445 219.896 194.39 216.324 194.645 216.107Z" fill="white"/>
<path fill-rule="evenodd" clip-rule="evenodd" d="M215.845 224.879C216.004 224.737 218.154 226.748 220.889 230.625C222.265 232.555 223.715 234.987 225.127 237.791C226.498 240.615 227.806 243.821 228.849 247.296C229.862 250.78 230.505 254.184 230.889 257.299C231.227 260.421 231.332 263.249 231.225 265.618C231.035 270.357 230.322 273.214 230.113 273.182C229.811 273.145 230.053 270.252 229.9 265.616C229.839 263.3 229.6 260.549 229.179 257.524C228.712 254.504 228.036 251.212 227.055 247.827C226.04 244.452 224.817 241.32 223.569 238.532C222.279 235.762 220.984 233.324 219.777 231.345C217.386 227.371 215.613 225.074 215.845 224.879Z" fill="white"/>
<path fill-rule="evenodd" clip-rule="evenodd" d="M141.611 378.076L139.981 374.749L94.6117 409.414L114.405 441.48L159.567 403.401L141.611 378.076Z" fill="#FF7B5B"/>
<path fill-rule="evenodd" clip-rule="evenodd" d="M96.5129 410.156L113.901 440.226L115.013 439.73L99.5284 411.614L96.5129 410.156Z" fill="#D7D4D4"/>
<path fill-rule="evenodd" clip-rule="evenodd" d="M140.715 377.418L96.5129 410.155C96.5129 410.155 96.6983 410.858 97.7952 411.291C98.8934 411.725 99.5284 411.614 99.5284 411.614L145.999 379.809C145.999 379.809 143.32 379.186 142.349 378.461C141.376 377.734 140.715 377.418 140.715 377.418Z" fill="#F5F3F3"/>
<path fill-rule="evenodd" clip-rule="evenodd" d="M147.135 378.526L98.6985 410.879L114.43 440.694L116.964 444.823L165.402 408.973C165.402 408.973 160.301 401.358 157.238 396.761C154.175 392.163 148.161 381.321 147.834 380.626C147.506 379.931 147.135 378.526 147.135 378.526Z" fill="#FF7B5B"/>
<path fill-rule="evenodd" clip-rule="evenodd" d="M546.58 155.166L547.948 152.371L586.046 181.481L569.425 208.408L531.501 176.431L546.58 155.166Z" fill="#775298"/>
<path fill-rule="evenodd" clip-rule="evenodd" d="M584.45 182.103L569.85 207.354L568.915 206.939L581.918 183.328L584.45 182.103Z" fill="#D7D4D4"/>
<path fill-rule="evenodd" clip-rule="evenodd" d="M547.333 154.612L584.45 182.103C584.45 182.103 584.294 182.693 583.374 183.057C582.451 183.421 581.917 183.328 581.917 183.328L542.895 156.62C542.895 156.62 545.144 156.098 545.961 155.488C546.777 154.878 547.333 154.612 547.333 154.612Z" fill="#F5F3F3"/>
<path fill-rule="evenodd" clip-rule="evenodd" d="M541.941 155.544L582.615 182.711L569.406 207.748L567.277 211.214L526.601 181.11C526.601 181.11 530.886 174.715 533.457 170.855C536.031 166.994 541.08 157.889 541.354 157.306C541.629 156.724 541.941 155.544 541.941 155.544Z" fill="#775298"/>
<path fill-rule="evenodd" clip-rule="evenodd" d="M87.4452 102.772C87.4452 102.772 84.5687 104.763 86.0063 108.083C87.4452 111.402 93.7513 121.248 102.27 120.916C102.619 120.904 91.5385 102.772 91.5385 102.772H87.4452Z" fill="#FF7B5B"/>
<path fill-rule="evenodd" clip-rule="evenodd" d="M74.4132 284.294C74.4132 284.294 63.7603 274.777 60.3496 276.482C56.1828 278.565 32.333 301.933 33.265 312.942C33.6479 317.451 38.8967 313.588 48.2496 303.886C57.6053 294.185 69.3851 298.343 69.3851 298.343L74.4132 284.294Z" fill="#775298"/>
<path fill-rule="evenodd" clip-rule="evenodd" d="M100.295 300.343L87.4351 292.628C87.4351 292.628 54.1001 323.88 59.308 328.047C63.2582 331.207 65.5801 328.373 74.9345 318.671C84.2874 308.972 96.1381 314.549 96.1381 314.549L100.295 300.343Z" fill="#775298"/>
<path fill-rule="evenodd" clip-rule="evenodd" d="M178.854 197.526L181.266 231.771L127.731 217.825L178.854 197.526Z" fill="#F3A683"/>
<path fill-rule="evenodd" clip-rule="evenodd" d="M127.731 219.003C127.731 219.003 174.559 221.955 180.794 219.874C180.794 219.874 189.946 309.777 173.662 319.476C157.378 329.178 120.835 314.972 120.835 314.972L130.702 295.571L151.975 294.185V259.54L150.449 259.886L127.731 219.003Z" fill="#112129"/>
<path fill-rule="evenodd" clip-rule="evenodd" d="M69.0319 280.327C69.0319 280.327 57.2535 285.178 61.0647 296.958C61.0647 296.958 101.271 328.485 120.836 321.209C131.797 317.133 143.571 286.035 151.808 259.466L180.795 219.874C180.795 219.874 167.124 220.558 162.563 220.54C153.846 220.507 127.732 219.003 127.732 219.003C127.732 219.003 114.091 290.375 109.23 292.107C104.37 293.838 69.0319 280.327 69.0319 280.327Z" fill="#22343D"/>
<path fill-rule="evenodd" clip-rule="evenodd" d="M138.644 129.487C138.644 129.487 166.708 103.155 171.557 96.2248C176.407 89.2958 186.804 66.0833 199.619 56.3827L193.384 43.2169C193.384 43.2169 197.196 41.1388 199.619 46.6807C199.619 46.6807 208.626 28.6666 210.705 29.0114C212.786 29.3575 206.549 42.8707 206.549 42.8707C206.549 42.8707 215.213 30.3972 217.637 30.7446C220.06 31.0907 211.4 44.7662 211.4 44.7662C211.4 44.7662 221.099 33.5162 222.486 34.902C223.872 36.2878 214.864 44.7662 214.864 44.7662C214.864 44.7662 224.564 39.1971 225.604 41.0325C226.644 42.8707 215.904 47.7204 215.904 47.7204C215.904 47.7204 214.864 55.6891 208.283 59.1529C208.283 59.1529 195.249 94.3662 183.469 105.799L145.628 145.127L138.644 129.487Z" fill="#FFC6B2"/>
<path fill-rule="evenodd" clip-rule="evenodd" d="M105.143 143.134C105.143 143.134 78.5517 170.951 71.5778 175.735C64.6026 180.518 41.2951 190.698 31.4761 203.425L18.3691 197.066C18.3691 197.066 16.2557 200.856 21.7757 203.332C21.7757 203.332 3.67609 212.172 4.00448 214.255C4.33014 216.337 17.9004 210.227 17.9004 210.227C17.9004 210.227 5.34665 218.774 5.67095 221.201C5.99525 223.628 19.7495 215.095 19.7495 215.095C19.7495 215.095 8.4098 224.689 9.78332 226.087C11.1541 227.486 19.7181 218.56 19.7181 218.56C19.7181 218.56 14.0578 228.207 15.8865 229.263C17.7124 230.319 22.6627 219.625 22.6627 219.625C22.6627 219.625 30.6395 218.663 34.1673 212.112C34.1673 212.112 67.5199 198.841 79.064 187.169L120.569 157.759L105.143 143.134Z" fill="#FFC6B2"/>
<path fill-rule="evenodd" clip-rule="evenodd" d="M115.112 132.047L101.663 145.213L105.074 160.055C105.074 160.055 118.324 191.865 120.327 199.626C123.44 211.693 118.404 230.093 118.404 230.093C118.404 230.093 140.867 228.227 161.306 227.535C181.744 226.842 188.43 220.257 188.43 220.257C188.43 220.257 170.709 161.236 158.474 144.737C146.238 128.241 141.788 123.077 141.788 123.077L123.773 127.015L115.112 132.047Z" fill="white"/>
<path fill-rule="evenodd" clip-rule="evenodd" d="M154.582 142.792L168.596 133.838C168.596 133.838 170.736 124.245 153.837 112.93L134.021 125.347L154.582 142.792Z" fill="white"/>
<path fill-rule="evenodd" clip-rule="evenodd" d="M104.497 144.172C96.8146 145.25 82.7756 164.72 81.21 164.684C81.21 164.684 91.0903 180.808 98.9171 181.331C98.9171 181.331 133.36 140.123 104.497 144.172Z" fill="white"/>
<path fill-rule="evenodd" clip-rule="evenodd" d="M131.616 131.503C131.616 131.503 120.449 123.159 120.836 119.833C120.934 118.995 122.482 117.635 122.884 116.428C125.049 109.932 114.61 93.195 108.196 89.6671C103.151 86.8928 105.362 86.6475 94.7434 92.9579C84.1245 99.2682 90.1745 110.18 94.9164 115.824C99.3994 121.159 104.534 123.444 109.153 123.83L115.721 138.418L131.616 131.503Z" fill="#FFC6B2"/>
<path fill-rule="evenodd" clip-rule="evenodd" d="M111.466 143.085C109.354 137.904 113.354 131.378 120.4 128.504C127.449 125.629 134.871 127.499 136.987 132.677C139.098 137.856 132.006 145.642 128.048 147.257C124.09 148.872 113.577 148.263 111.466 143.085Z" fill="#FFC6B2"/>
<path fill-rule="evenodd" clip-rule="evenodd" d="M94.9169 115.824C94.9169 115.824 91.2951 115.624 90.8931 118.037C90.4898 120.452 97.5317 120.452 100.148 118.641L94.9169 115.824Z" fill="#FFC6B2"/>
<path fill-rule="evenodd" clip-rule="evenodd" d="M96.728 118.037C96.0399 113.676 91.392 110.433 91.6236 106.183C93.8515 106.2 95.2822 103.441 94.2685 101.082C93.8692 100.156 93.1934 99.3625 92.7614 98.4482C92.3308 97.5352 92.2164 96.3388 92.8772 95.8224C93.1906 95.5785 93.6144 95.5362 94.0205 95.4954C97.3234 95.1561 102.982 96.1467 106.022 95.0198C108.917 93.9474 112.018 91.8612 111.717 88.3156C111.454 85.2279 108.727 82.7247 106.223 80.8334C104.788 79.7487 100.688 76.9131 99.1412 77.1706C96.7797 77.5631 96.2075 80.7135 96.0371 83.3502C94.3856 81.7777 91.9493 82.0298 90.5131 83.3093C89.0769 84.5888 88.397 86.6219 87.7715 88.5841C87.1447 90.5476 86.4811 92.5861 85.064 93.8902C83.7436 95.1057 81.6547 96.0254 81.9286 98.0926C82.2543 100.556 85.4728 101.432 86.9608 103.534C86.5942 103.018 86.2835 106.308 86.4947 106.865C87.1297 108.545 88.7144 109.657 89.8604 110.942C92.3008 113.681 93.4945 116.439 96.728 118.037Z" fill="#FF7B5B"/>
<path fill-rule="evenodd" clip-rule="evenodd" d="M116.961 108.064L108.709 112.332C108.709 112.332 118.621 119.526 116.961 108.064Z" fill="white"/>
<path fill-rule="evenodd" clip-rule="evenodd" d="M105.608 109.756C106.059 110.612 105.392 111.849 104.117 112.519C102.843 113.19 101.445 113.04 100.994 112.184C100.545 111.328 101.211 110.092 102.485 109.421C103.76 108.75 105.157 108.9 105.608 109.756Z" fill="#FFB2A0"/>
<path fill-rule="evenodd" clip-rule="evenodd" d="M117.657 101.525C118.109 102.381 117.441 103.618 116.167 104.288C114.893 104.959 113.495 104.809 113.044 103.953C112.594 103.097 113.26 101.86 114.534 101.19C115.81 100.519 117.206 100.669 117.657 101.525Z" fill="#FFB2A0"/>
<path fill-rule="evenodd" clip-rule="evenodd" d="M111.2 107.761C111.162 107.713 111.316 107.51 111.673 107.253C112.014 106.99 112.607 106.706 113.047 106.232C113.483 105.773 113.639 104.815 112.972 104.68C112.278 104.445 111.491 105.24 110.587 105.997C110.364 106.182 110.143 106.366 109.924 106.547C109.719 106.735 109.289 107.01 108.842 106.954C107.99 106.817 107.628 106.249 107.301 105.868C106.647 105.029 106.243 104.15 106.02 103.39C105.577 101.853 105.776 100.861 105.882 100.869C106.031 100.862 106.08 101.816 106.642 103.168C106.926 103.839 107.35 104.603 107.967 105.323C108.268 105.689 108.647 106.029 108.917 106.04C109.03 106.046 109.118 106.007 109.331 105.829C109.548 105.648 109.766 105.464 109.986 105.278C110.441 104.911 110.835 104.539 111.356 104.192C111.861 103.852 112.582 103.636 113.228 103.856C113.917 104.037 114.322 104.841 114.202 105.4C114.125 105.969 113.841 106.389 113.52 106.696C112.84 107.264 112.232 107.401 111.849 107.573C111.457 107.722 111.241 107.814 111.2 107.761Z" fill="#FF7B5B"/>
<path fill-rule="evenodd" clip-rule="evenodd" d="M109.153 123.83C109.153 123.83 114.417 123.86 117.273 122.101C117.273 122.101 114.857 125.069 110.022 125.837L109.153 123.83Z" fill="#FFA192"/>
<path fill-rule="evenodd" clip-rule="evenodd" d="M111.436 100.224C111.388 100.484 110.652 100.565 109.874 100.908C109.085 101.227 108.516 101.7 108.296 101.553C108.072 101.434 108.444 100.494 109.509 100.045C110.573 99.5945 111.505 99.9787 111.436 100.224Z" fill="#22343D"/>
<path fill-rule="evenodd" clip-rule="evenodd" d="M101.12 106.991C100.922 106.843 101.234 105.996 101.991 105.147C102.758 104.28 103.738 103.991 103.842 104.234C103.951 104.47 103.354 105.019 102.682 105.781C101.999 106.54 101.336 107.151 101.12 106.991Z" fill="#22343D"/>
<path fill-rule="evenodd" clip-rule="evenodd" d="M97.1217 105.683C96.6952 105.366 96.3628 104.013 97.9952 102.19C99.6426 100.326 101.483 100.654 101.704 101.172C101.941 101.681 101.328 102.404 99.8824 104.043C98.4149 105.677 97.5837 106.029 97.1217 105.683Z" fill="#FF7B5B"/>
<path fill-rule="evenodd" clip-rule="evenodd" d="M105.787 98.5008C105.551 98.0593 105.812 96.7743 107.935 95.8791C110.088 94.9538 111.522 95.9744 111.502 96.5045C111.498 97.0318 110.687 97.4011 108.796 98.216C106.891 99.0158 106.042 98.9818 105.787 98.5008Z" fill="#FF7B5B"/>
<path fill-rule="evenodd" clip-rule="evenodd" d="M558.6 111.283C558.739 111.42 556.452 113.993 551.708 116.795C547.022 119.593 539.648 122.368 531.168 122.43C522.687 122.493 515.273 119.828 510.546 117.098C505.762 114.368 503.437 111.828 503.573 111.687C503.771 111.438 506.371 113.58 511.162 115.925C515.906 118.28 523.057 120.617 531.153 120.558C539.251 120.497 546.365 118.055 551.075 115.631C555.829 113.215 558.399 111.035 558.6 111.283Z" fill="#775298"/>
<path fill-rule="evenodd" clip-rule="evenodd" d="M506.86 107.397C506.731 107.681 504.199 106.631 499.934 105.68C497.808 105.178 495.229 104.791 492.357 104.434C489.473 104.115 486.286 103.862 482.921 103.622C479.554 103.386 476.331 103.115 473.404 102.753C470.477 102.364 467.847 101.902 465.681 101.317C461.331 100.181 458.868 98.8379 458.954 98.6485C459.067 98.3623 461.657 99.2467 465.964 100.022C468.113 100.432 470.706 100.75 473.593 101.037C476.488 101.302 479.684 101.518 483.055 101.755C486.429 101.995 489.657 102.304 492.582 102.724C495.504 103.183 498.126 103.717 500.271 104.399C504.578 105.714 506.957 107.218 506.86 107.397Z" fill="#775298"/>
<mask id="mask0_0_574" style="mask-type:luminance" maskUnits="userSpaceOnUse" x="438" y="35" width="171" height="84">
<path fill-rule="evenodd" clip-rule="evenodd" d="M438.468 35.2061H608.354V118.441H438.468V35.2061Z" fill="white"/>
</mask>
<g mask="url(#mask0_0_574)">
<path fill-rule="evenodd" clip-rule="evenodd" d="M455.556 52.0653C463.642 50.3497 472.019 51.8268 480.172 53.1854C488.326 54.5439 496.79 55.769 504.761 53.5806C519.153 49.6303 530.079 35.0896 545.003 35.2068C551.149 35.2545 556.941 37.8789 562.929 39.2674C570.363 40.9925 578.108 40.8072 585.639 42.0377C593.172 43.2681 600.952 46.2973 605.209 52.6322C610.259 60.1498 608.875 70.7539 603.575 78.0985C598.276 85.4445 589.79 89.9166 581.095 92.4512C575.03 94.2185 568.568 95.2405 563.32 98.7574C558.011 102.315 554.544 108.041 549.598 112.087C537.186 122.237 517.87 119.328 505.049 109.699C501.828 107.281 498.842 104.474 495.223 102.704C480.503 95.498 459.332 105.036 446.654 91.9265C433.78 78.6122 435.614 56.2949 455.556 52.0653Z" fill="#775298"/>
</g>
<path fill-rule="evenodd" clip-rule="evenodd" d="M451.516 309.916C451.516 309.916 465.003 338.825 466.581 333.472C468.155 328.117 467.634 315.261 466.79 313.425C465.941 311.59 460.428 303.481 460.428 303.481L451.516 309.916Z" fill="#FFB2A0"/>
<path fill-rule="evenodd" clip-rule="evenodd" d="M549.04 76.1517C550.288 77.7501 549.454 76.0331 550.867 78.3387C556.74 78.1343 560.682 73.1648 560.682 73.1648C560.682 73.1648 570.004 73.4114 569.896 71.7463C569.79 70.0784 560.96 70.7011 560.96 70.7011C560.96 70.7011 570.301 67.7674 569.789 66.3026C569.279 64.8391 558.495 69.5075 558.495 69.5075C558.495 69.5075 569.377 62.7529 567.769 61.6696C566.163 60.589 555.692 66.4851 555.692 66.4851C555.692 66.4851 564.792 59.0111 563.428 58.0477C562.067 57.0843 549.445 66.8122 549.445 66.8122C549.629 62.0266 546.196 62.1942 546.196 62.1942L546.338 73.8788C546.338 73.8788 548.465 75.4159 549.04 76.1517Z" fill="#FFC6B2"/>
<path fill-rule="evenodd" clip-rule="evenodd" d="M410.867 23.2676C408.872 23.6355 410.418 22.9419 407.829 23.7322C403.577 19.677 404.141 13.3039 404.141 13.3039C404.141 13.3039 397.009 7.30017 398.192 6.12694C399.381 4.95098 405.569 11.2791 405.569 11.2791C405.569 11.2791 400.534 2.8825 401.888 2.1276C403.241 1.37269 408.208 12.0231 408.208 12.0231C408.208 12.0231 404.554 -0.252932 406.475 0.00460659C408.393 0.262145 412.31 11.6211 412.31 11.6211C412.31 11.6211 410.467 -0.00765714 412.123 0.176299C413.781 0.358892 416.764 16.0142 416.764 16.0142C419.803 12.3133 422.257 14.7184 422.257 14.7184L414.554 23.1899C414.554 23.1899 411.784 23.0999 410.867 23.2676Z" fill="#FFC6B2"/>
<path fill-rule="evenodd" clip-rule="evenodd" d="M459.249 72.0757C456.67 71.6519 450.433 75.7971 447.313 82.553C445.566 86.3343 444.364 90.1756 446.369 96.3252C447.313 99.2181 449.289 99.5805 449.73 100.876C450.287 102.517 448.441 107.688 448.441 107.688L455.803 110.662C456.282 107.109 456.824 103.535 460.444 101.992C461.799 101.415 463.249 101.049 464.527 100.316C467.976 98.3392 469.818 94.0142 471.235 90.4727C472.292 87.8278 465.716 73.1358 459.249 72.0757Z" fill="#FFC6B2"/>
<path fill-rule="evenodd" clip-rule="evenodd" d="M450.485 172.479L438.151 167.53C438.151 167.53 401.546 235.413 401.698 254.247C401.85 273.08 451.973 310.788 451.973 310.788L460.427 303.482C460.427 303.482 444.952 276.497 436.679 266.983C428.406 257.467 450.485 172.479 450.485 172.479Z" fill="#FFB2A0"/>
<path fill-rule="evenodd" clip-rule="evenodd" d="M511.727 249.807C511.727 249.807 538.913 236.909 533.45 235.77C527.987 234.636 515.211 236.199 513.452 237.191C511.69 238.184 504.057 244.336 504.057 244.336L511.727 249.807Z" fill="#FFC6B2"/>
<path fill-rule="evenodd" clip-rule="evenodd" d="M462.601 171.89L443.89 178.698C443.89 178.698 425.173 261.023 432.319 273.948C439.461 286.878 459.529 278.322 488.108 262.724L512.046 249.656L504.056 244.338C504.056 244.338 476.2 249.796 468.377 255.239C468.377 255.239 472.46 243.671 477.903 227.343C483.346 211.013 487.1 194.344 462.601 171.89Z" fill="#FFC6B2"/>
<path fill-rule="evenodd" clip-rule="evenodd" d="M439.57 115.805C439.57 110.335 441.331 106.379 446.8 106.379C452.27 106.379 459.831 108.296 459.831 113.767C459.831 119.24 455.521 128.123 450.049 128.123C444.579 128.123 439.57 121.277 439.57 115.805Z" fill="#FFC6B2"/>
<path fill-rule="evenodd" clip-rule="evenodd" d="M443.889 105.595C443.889 105.595 426.881 87.1889 423.479 69.1571C420.075 51.128 414.295 21.8708 414.295 21.8708L407.831 23.7322C407.831 23.7322 404.767 63.7161 407.831 69.8384C410.891 75.9621 425.851 116.729 430.406 127.436L443.889 105.595Z" fill="#FFC6B2"/>
<path fill-rule="evenodd" clip-rule="evenodd" d="M462.162 119.941C462.162 119.941 463.47 114.215 484.978 106.433C506.485 98.6525 547.061 73.4314 547.061 73.4314L551.109 78.063C551.109 78.063 529.062 103.529 516.236 107.996C503.41 112.464 476.167 130.076 473.364 131.485C469.125 133.618 469.177 136.301 462.162 119.941Z" fill="#FFC6B2"/>
<path fill-rule="evenodd" clip-rule="evenodd" d="M443.889 105.595C443.889 105.595 426.609 111.196 426.609 137.491C426.609 137.491 426.62 173.504 430.692 180.055C430.692 180.055 437.313 181.752 445.568 180.055C454.223 178.276 462.601 171.89 462.601 171.89L476.194 131.081L474.569 111.96L456.086 108.392C456.086 108.392 461.388 133.168 442.205 122.517C438.477 120.447 447.69 106.39 447.69 106.39L443.889 105.595Z" fill="#22343D"/>
<path fill-rule="evenodd" clip-rule="evenodd" d="M429.268 126.981L420.753 109.241C420.753 109.241 421.974 98.4787 437.606 94.6224C437.606 94.6224 439.186 100.047 440.92 102.12C442.651 104.191 447.696 106.396 447.696 106.396L429.268 126.981Z" fill="#22343D"/>
<path fill-rule="evenodd" clip-rule="evenodd" d="M461.46 134.112L488.536 128.562C488.536 128.562 493.244 118.808 482.081 107.205C482.081 107.205 460.961 108.481 458.227 108.708C455.536 108.932 457.384 111.004 457.384 111.004L461.46 134.112Z" fill="#22343D"/>
<path fill-rule="evenodd" clip-rule="evenodd" d="M430.649 171.283C430.649 171.283 405.039 218.634 400.808 227.094C400.808 227.094 476.363 261.802 507.034 220.025C507.034 220.025 489.588 183.098 462.616 169.039L450.981 165.555L431.104 171.056" fill="#22343D"/>
<path fill-rule="evenodd" clip-rule="evenodd" d="M470.243 90.025C470.243 90.025 473.161 87.1076 474.955 89.127C476.75 91.1464 468.449 94.0638 468.449 94.0638L470.243 90.025Z" fill="#FFC6B2"/>
<path fill-rule="evenodd" clip-rule="evenodd" d="M523.606 50.2363C523.634 50.3371 522.507 50.8249 520.356 51.3359C518.21 51.8523 515.025 52.3211 511.07 52.4015C507.117 52.4805 502.416 52.129 497.27 51.4313C492.121 50.7486 486.528 49.7457 480.642 49.1039C474.767 48.4757 469.117 48.3613 464.114 49.1693C459.109 49.9637 454.777 51.603 451.466 53.5175C448.155 55.447 445.851 57.5877 444.436 59.2079C443.014 60.8294 442.373 61.865 442.229 61.7778C442.15 61.7369 442.578 60.5705 443.867 58.7527C445.148 56.9404 447.408 54.549 450.779 52.3865C454.148 50.2376 458.625 48.3912 463.828 47.4674C469.037 46.5299 474.864 46.6021 480.841 47.2425C486.825 47.8952 492.425 48.9554 497.514 49.7239C502.602 50.5074 507.201 50.9871 511.074 51.077C518.836 51.2937 523.535 49.916 523.606 50.2363Z" fill="#775298"/>
<path fill-rule="evenodd" clip-rule="evenodd" d="M455.387 88.3689C455.379 88.4833 454.548 88.5637 453.279 88.1427C452.966 88.0323 452.595 87.8878 452.25 87.5717C452.08 87.4136 451.922 87.2038 451.825 86.9517C451.686 86.5988 451.697 86.1982 451.835 85.8929C451.876 85.8316 451.873 85.6858 451.953 85.6831L452.2 85.6749C452.358 85.6531 452.545 85.7049 452.727 85.739C453.062 85.803 453.17 85.7935 453.409 85.8098C453.827 85.8194 454.26 85.7758 454.693 85.6804C456.465 85.307 457.65 84.0179 458.182 82.9578C458.739 81.8909 458.788 81.0883 458.937 81.0978C459.042 81.0842 459.249 81.9372 458.788 83.2249C458.554 83.8558 458.146 84.5794 457.488 85.2143C456.834 85.848 455.928 86.3685 454.899 86.5933C454.386 86.7078 453.869 86.7514 453.372 86.7255C453.155 86.7146 452.814 86.671 452.715 86.6492C452.624 86.6342 452.635 86.6138 452.617 86.6247C452.606 86.6356 452.601 86.6533 452.602 86.6792C452.639 86.8018 452.705 86.919 452.799 87.0239C452.989 87.2379 453.264 87.3973 453.533 87.5308C454.629 88.0691 455.407 88.2285 455.387 88.3689Z" fill="#FF7B5B"/>
<path fill-rule="evenodd" clip-rule="evenodd" d="M449.313 88.6842L459.288 92.6141C459.288 92.6141 450.522 98.6587 449.313 88.6842Z" fill="white"/>
<path fill-rule="evenodd" clip-rule="evenodd" d="M463.547 90.5752C463.193 91.2483 462.094 91.3655 461.093 90.8382C460.091 90.3122 459.567 89.3393 459.92 88.6675C460.274 87.9943 461.373 87.8758 462.375 88.4031C463.376 88.9305 463.901 89.902 463.547 90.5752Z" fill="#FFB2A0"/>
<path fill-rule="evenodd" clip-rule="evenodd" d="M452.415 84.6728C452.113 85.3704 451.027 85.5721 449.988 85.1224C448.95 84.6728 448.352 83.7434 448.654 83.0458C448.955 82.3481 450.043 82.1464 451.081 82.5961C452.119 83.0458 452.718 83.9751 452.415 84.6728Z" fill="#FFB2A0"/>
<path fill-rule="evenodd" clip-rule="evenodd" d="M448.72 99.6233C448.72 99.6233 452.217 102.552 455.865 101.609C455.865 101.609 454.607 103.495 449.765 102.802C449.765 102.802 450.167 100.724 448.72 99.6233Z" fill="#FFA192"/>
<path fill-rule="evenodd" clip-rule="evenodd" d="M462.59 84.3108C462.59 84.7469 462.236 85.1012 461.8 85.1012C461.364 85.1012 461.009 84.7469 461.009 84.3108C461.009 83.8748 461.364 83.5205 461.8 83.5205C462.236 83.5205 462.59 83.8748 462.59 84.3108Z" fill="#22343D"/>
<path fill-rule="evenodd" clip-rule="evenodd" d="M456.123 81.9815C456.123 82.4175 455.769 82.7718 455.333 82.7718C454.897 82.7718 454.544 82.4175 454.544 81.9815C454.544 81.5454 454.897 81.1912 455.333 81.1912C455.769 81.1912 456.123 81.5454 456.123 81.9815Z" fill="#22343D"/>
<path fill-rule="evenodd" clip-rule="evenodd" d="M465.129 82.2057C464.885 82.3092 464.414 81.7383 463.7 81.2764C463.001 80.794 462.292 80.5773 462.293 80.313C462.27 80.0595 463.259 79.8538 464.22 80.4983C465.182 81.1387 465.373 82.1294 465.129 82.2057Z" fill="#775298"/>
<path fill-rule="evenodd" clip-rule="evenodd" d="M453.732 78.3713C453.715 78.1247 454.564 77.814 455.701 77.844C456.858 77.8685 457.712 78.4299 457.593 78.6643C457.484 78.9014 456.679 78.7992 455.664 78.7801C454.643 78.7501 453.748 78.6397 453.732 78.3713Z" fill="#775298"/>
<path fill-rule="evenodd" clip-rule="evenodd" d="M457.293 321.663C457.293 321.663 461.442 336.39 465.726 335.184C470.01 333.98 466.789 313.426 466.789 313.426L462.515 306.67C462.515 306.67 466.53 341.075 457.293 321.663Z" fill="#22343D"/>
<path fill-rule="evenodd" clip-rule="evenodd" d="M509.613 240.015C509.613 240.015 512.63 236.723 516.287 236.175C519.945 235.626 533.02 234.071 534.94 235.808C536.861 237.546 524.343 243.371 524.343 243.371C524.343 243.371 528.704 240.591 526.893 239.558C523.693 237.728 509.613 240.015 509.613 240.015Z" fill="#22343D"/>
<path fill-rule="evenodd" clip-rule="evenodd" d="M504.425 243.958L508.518 252.269L510.752 251.029L505.293 242.842L504.425 243.958Z" fill="#22343D"/>
<path fill-rule="evenodd" clip-rule="evenodd" d="M458.653 300.149L448.605 309.205L451.583 311.687L460.017 302.507L458.653 300.149Z" fill="#22343D"/>
<path fill-rule="evenodd" clip-rule="evenodd" d="M248.587 209.994C245.729 202.902 244.631 195.007 240.367 188.662C234.232 179.531 222.446 175 217.467 165.189C215.353 161.022 214.689 156.255 214.667 151.583C214.626 142.339 217.394 132.511 224.534 126.637C232.738 119.887 245.048 119.981 254.657 124.515C264.264 129.05 271.604 137.282 277.845 145.88C284.087 154.477 289.551 163.703 296.819 171.451C302.208 177.196 308.6 182.151 312.659 188.9C323.788 207.403 312.338 230.815 292.692 237.493C275.429 243.359 254.559 224.819 248.587 209.994Z" fill="#22343D"/>
<path fill-rule="evenodd" clip-rule="evenodd" d="M223.994 340.493C225.702 341.898 223.838 340.925 226.324 342.544C225.769 348.754 220.026 352.666 220.026 352.666C220.026 352.666 219.783 362.552 217.938 362.349C216.089 362.148 217.273 352.829 217.273 352.829C217.273 352.829 213.492 362.567 211.892 361.947C210.294 361.329 216.082 350.156 216.082 350.156C216.082 350.156 207.969 361.323 206.855 359.562C205.742 357.803 212.88 347.027 212.88 347.027C212.88 347.027 204.066 356.269 203.069 354.772C202.075 353.28 213.589 340.428 213.589 340.428C208.26 340.369 208.637 336.742 208.637 336.742L221.617 337.512C221.617 337.512 223.208 339.845 223.994 340.493Z" fill="#FFC6B2"/>
<path fill-rule="evenodd" clip-rule="evenodd" d="M347.998 154.046C350.219 154.435 348.495 153.699 351.377 154.538C356.111 150.237 355.482 143.48 355.482 143.48C355.482 143.48 363.421 137.113 362.105 135.869C360.78 134.623 353.894 141.331 353.894 141.331C353.894 141.331 359.497 132.429 357.99 131.627C356.485 130.828 350.957 142.121 350.957 142.121C350.957 142.121 355.025 129.104 352.885 129.376C350.751 129.65 346.392 141.695 346.392 141.695C346.392 141.695 348.442 129.364 346.598 129.559C344.753 129.753 341.769 145.907 341.769 145.907C337.422 142.369 334.38 144.634 334.38 144.634L343.893 153.962C343.893 153.962 346.977 153.868 347.998 154.046Z" fill="#FFC6B2"/>
<path fill-rule="evenodd" clip-rule="evenodd" d="M293.657 208.036C297.672 207.409 309.918 215.345 306.802 231.461C306.542 232.814 304.774 235.793 304.334 237.025C303.778 238.585 308.11 244.296 308.11 244.296L296.927 247.869C296.45 244.491 297.253 239.554 293.639 238.086C292.287 237.537 290.84 237.19 289.565 236.493C286.121 234.613 284.283 230.499 282.869 227.132C281.813 224.615 281.009 221.909 281.039 219.178C281.112 212.302 287.202 209.044 293.657 208.036Z" fill="#FFC6B2"/>
<path fill-rule="evenodd" clip-rule="evenodd" d="M316.051 252.173C316.051 246.373 314.211 244.158 308.123 244.158C302.035 244.158 293.998 246.373 293.998 252.173C293.998 257.976 298.297 265.236 304.388 265.236C310.475 265.236 316.051 257.976 316.051 252.173Z" fill="#FFC6B2"/>
<path fill-rule="evenodd" clip-rule="evenodd" d="M311.243 241.347C311.243 241.347 330.174 221.828 333.96 202.708C337.748 183.589 344.183 152.564 344.183 152.564L351.377 154.537C351.377 154.537 354.787 196.937 351.377 203.43C347.971 209.924 328.658 255.018 329.037 266.561L311.243 241.347Z" fill="#FFC6B2"/>
<path fill-rule="evenodd" clip-rule="evenodd" d="M277.498 250.797C277.498 250.797 271.061 251.879 261.216 274.247C251.371 296.613 221.08 338.253 221.08 338.253L226.003 342.786C226.003 342.786 255.536 320.783 261.216 307.436C266.894 294.088 274.088 277.494 277.498 278.214C280.904 278.937 295.293 259.093 277.498 250.797Z" fill="#FFC6B2"/>
<path fill-rule="evenodd" clip-rule="evenodd" d="M328.18 269.543L336.994 245.213C336.994 245.213 335.635 233.802 318.237 229.712L308.381 243.912L328.18 269.543Z" fill="#FF7B5B"/>
<path fill-rule="evenodd" clip-rule="evenodd" d="M280.436 248.931C280.436 248.931 270.037 249.807 261.608 268.321C261.608 268.321 270.878 281.119 277.659 281.551C277.659 281.551 302.847 260.021 280.436 248.931Z" fill="#FF7B5B"/>
<path fill-rule="evenodd" clip-rule="evenodd" d="M309.01 468.488C309.01 468.488 293.998 499.143 292.243 493.468C290.491 487.79 291.07 474.155 292.01 472.21C292.954 470.262 299.092 461.664 299.092 461.664L309.01 468.488Z" fill="#FFC6B2"/>
<path fill-rule="evenodd" clip-rule="evenodd" d="M310.157 322.747L323.885 317.498C323.885 317.498 364.628 389.484 364.459 409.456C364.29 429.425 308.502 469.413 308.502 469.413L299.091 461.664C299.091 461.664 325.534 422.785 334.741 412.696C339.346 407.65 306.384 382.924 301.391 359.132C296.399 335.341 310.157 322.747 310.157 322.747Z" fill="#654287"/>
<path fill-rule="evenodd" clip-rule="evenodd" d="M227.615 452.429C227.615 452.429 199.535 473.128 200.702 467.319C201.874 461.504 208.943 449.639 210.716 448.318C212.492 447 222.079 442.035 222.079 442.035L227.615 452.429Z" fill="#FFC6B2"/>
<path fill-rule="evenodd" clip-rule="evenodd" d="M272.806 348.238L313.423 324.698C313.423 324.698 315.035 406.468 305.284 424.148C295.535 441.828 226.719 453.029 226.719 453.029L222.079 442.035C222.079 442.035 264.535 416.739 277.57 411.789C290.606 406.836 272.806 348.238 272.806 348.238Z" fill="#775298"/>
<path fill-rule="evenodd" clip-rule="evenodd" d="M296.996 308.596C296.996 308.596 267.089 319.185 272.807 348.238C278.523 377.29 288.052 382.736 288.052 382.736L305.203 354.594L322.422 317.738L305.203 315.554L296.996 308.596Z" fill="#775298"/>
<path fill-rule="evenodd" clip-rule="evenodd" d="M311.243 241.347C311.243 241.347 333.261 253.687 333.261 281.57C333.261 281.57 330.464 313.359 325.93 320.305C325.93 320.305 318.561 322.105 309.373 320.305C299.74 318.419 290.417 311.648 290.417 311.648L282.892 272.728L277.039 250.004L280.212 248.957L296.772 247.138C296.772 247.138 294.393 271.875 312.883 259.591C316.778 257.004 308.035 244.105 308.035 244.105L311.243 241.347Z" fill="#FF7B5B"/>
<path fill-rule="evenodd" clip-rule="evenodd" d="M324.72 135.979L370.885 162.91L396.854 113.858L353.573 89.8125L324.72 135.979Z" fill="white"/>
<path fill-rule="evenodd" clip-rule="evenodd" d="M388.944 370.787L421.961 350.347L394.683 302.733L364.501 322.304L388.944 370.787Z" fill="white"/>
<path fill-rule="evenodd" clip-rule="evenodd" d="M226.376 167.891C226.463 167.813 227.482 168.738 229.094 170.626C230.699 172.516 232.889 175.389 235.087 179.268C237.293 183.129 239.476 188.029 241.035 193.717C242.648 199.362 243.73 205.708 246.21 211.821C247.498 214.841 249.058 217.652 250.915 220.137C252.789 222.606 254.867 224.773 257.006 226.663C261.377 230.342 265.957 232.872 270.038 234.334C274.115 235.817 277.607 236.482 280.035 236.72C282.461 236.989 283.832 237.028 283.833 237.188C283.84 237.287 282.473 237.496 279.982 237.448C277.493 237.429 273.87 236.953 269.602 235.585C265.331 234.236 260.506 231.74 255.893 227.98C253.629 226.048 251.43 223.811 249.449 221.239C247.484 218.653 245.824 215.696 244.477 212.531C241.893 206.141 240.873 199.74 239.37 194.169C237.935 188.58 235.94 183.77 233.923 179.9C231.919 176.019 229.929 173.077 228.519 171.071C227.101 169.07 226.269 167.985 226.376 167.891Z" fill="#22343D"/>
<path fill-rule="evenodd" clip-rule="evenodd" d="M283.094 136.383C283.434 136.331 283.763 140.876 286.306 147.598C287.576 150.946 289.465 154.798 292.178 158.66C293.533 160.593 295.094 162.498 296.859 164.396C298.613 166.303 300.524 168.239 302.329 170.411C305.949 174.795 308.44 179.532 310.785 183.714C313.114 187.937 314.969 191.954 315.912 195.547C316.895 199.13 316.953 202.214 316.641 204.259C316.315 206.314 315.804 207.355 315.719 207.326C315.557 207.284 315.822 206.184 315.914 204.193C315.995 202.205 315.741 199.308 314.642 195.922C313.579 192.522 311.667 188.691 309.281 184.558C306.858 180.426 304.346 175.784 300.887 171.606C299.151 169.516 297.268 167.586 295.504 165.632C293.73 163.688 292.116 161.663 290.755 159.637C288.024 155.58 286.201 151.537 285.059 148.042C283.891 144.548 283.394 141.599 283.158 139.568C282.925 137.532 282.988 136.393 283.094 136.383Z" fill="#22343D"/>
<path fill-rule="evenodd" clip-rule="evenodd" d="M297.247 225.553C297.23 225.423 297.982 225.303 298.692 224.469C298.855 224.277 299.02 223.996 299.018 223.832C299.013 223.657 298.891 223.351 298.68 223.176C298.46 222.979 298.216 222.884 297.895 222.917C297.562 222.941 297.158 223.106 296.629 223.185C295.471 223.339 294.567 222.685 293.973 222.155C293.363 221.598 292.897 221.032 292.549 220.525C291.857 219.505 291.642 218.767 291.748 218.713C291.871 218.648 292.288 219.258 293.068 220.114C293.458 220.539 293.95 221.027 294.53 221.497C295.103 221.953 295.803 222.369 296.502 222.259C296.873 222.211 297.305 222.038 297.831 222.002C298.366 221.949 298.962 222.196 299.289 222.564C299.636 222.94 299.831 223.383 299.79 223.907C299.687 224.444 299.402 224.695 299.166 224.929C298.148 225.82 297.215 225.675 297.247 225.553Z" fill="#FF7B5B"/>
<path fill-rule="evenodd" clip-rule="evenodd" d="M302.703 226.321L293.837 229.545C293.837 229.545 301.36 236.127 302.703 226.321Z" fill="white"/>
<path fill-rule="evenodd" clip-rule="evenodd" d="M292.952 225.772C293.306 226.446 292.782 227.418 291.78 227.944C290.779 228.472 289.681 228.355 289.326 227.681C288.972 227.01 289.497 226.037 290.498 225.509C291.5 224.982 292.598 225.099 292.952 225.772Z" fill="#FFB2A0"/>
<path fill-rule="evenodd" clip-rule="evenodd" d="M303.463 220.382C303.753 221.085 303.14 222.004 302.095 222.436C301.049 222.869 299.965 222.65 299.675 221.947C299.385 221.244 299.998 220.325 301.044 219.893C302.09 219.461 303.173 219.679 303.463 220.382Z" fill="#FFB2A0"/>
<path fill-rule="evenodd" clip-rule="evenodd" d="M294.099 238.322C294.099 238.322 297.066 238.926 300.847 237.981C300.847 237.981 298.983 239.792 295.937 240.213C295.937 240.213 295.255 238.952 294.099 238.322Z" fill="#FFA192"/>
<path fill-rule="evenodd" clip-rule="evenodd" d="M297.13 218.392C297.462 218.674 297.503 219.172 297.221 219.505C296.939 219.837 296.442 219.878 296.108 219.596C295.775 219.316 295.734 218.817 296.016 218.483C296.299 218.151 296.797 218.11 297.13 218.392Z" fill="#22343D"/>
<path fill-rule="evenodd" clip-rule="evenodd" d="M291.172 221.82C291.504 222.102 291.545 222.6 291.263 222.933C290.982 223.265 290.484 223.306 290.15 223.024C289.817 222.742 289.776 222.245 290.058 221.911C290.34 221.578 290.839 221.537 291.172 221.82Z" fill="#22343D"/>
<path fill-rule="evenodd" clip-rule="evenodd" d="M297.165 215.093C297.086 215.347 296.346 215.337 295.533 215.584C294.712 215.805 294.09 216.205 293.888 216.032C293.679 215.888 294.162 214.999 295.275 214.683C296.386 214.363 297.265 214.859 297.165 215.093Z" fill="#22343D"/>
<path fill-rule="evenodd" clip-rule="evenodd" d="M286.872 221.31C286.673 221.163 286.985 220.315 287.743 219.468C288.509 218.601 289.49 218.312 289.592 218.553C289.702 218.789 289.104 219.338 288.432 220.1C287.751 220.859 287.088 221.472 286.872 221.31Z" fill="#22343D"/>
<path fill-rule="evenodd" clip-rule="evenodd" d="M283.528 227.893C283.528 227.893 280.684 225.505 279.319 227.666C277.955 229.827 285.462 230.965 285.462 230.965L283.528 227.893Z" fill="#FFC6B2"/>
<path fill-rule="evenodd" clip-rule="evenodd" d="M215.15 445.703C215.15 445.703 211.073 447.475 210.01 448.54C208.946 449.603 199.197 466.442 200.438 468.569C201.679 470.696 211.456 463.476 211.456 463.476C211.456 463.476 203.275 465.025 215.15 445.703Z" fill="#775298"/>
<path fill-rule="evenodd" clip-rule="evenodd" d="M294.706 467.97C294.706 467.97 291.81 471.1 291.363 472.538C290.917 473.973 290.117 493.415 292.206 494.72C294.293 496.027 300 485.299 300 485.299C300 485.299 293.177 490.643 294.706 468.015" fill="#775298"/>
</g>
<defs>
<filter id="filter0_d_0_574" x="6.10352e-05" y="0.000610352" width="612.354" height="502.83" filterUnits="userSpaceOnUse" color-interpolation-filters="sRGB">
<feFlood flood-opacity="0" result="BackgroundImageFix"/>
<feColorMatrix in="SourceAlpha" type="matrix" values="0 0 0 0 0 0 0 0 0 0 0 0 0 0 0 0 0 0 127 0" result="hardAlpha"/>
<feOffset dy="4"/>
<feGaussianBlur stdDeviation="2"/>
<feComposite in2="hardAlpha" operator="out"/>
<feColorMatrix type="matrix" values="0 0 0 0 0 0 0 0 0 0 0 0 0 0 0 0 0 0 0.25 0"/>
<feBlend mode="normal" in2="BackgroundImageFix" result="effect1_dropShadow_0_574"/>
<feBlend mode="normal" in="SourceGraphic" in2="effect1_dropShadow_0_574" result="shape"/>
</filter>
</defs>
</svg>
